<?xml version="1.0" encoding="utf-8"?>
<!-- Generator: Adobe Illustrator 21.0.0, SVG Export Plug-In . SVG Version: 6.00 Build 0)  -->
<!DOCTYPE svg PUBLIC "-//W3C//DTD SVG 1.1//EN" "http://www.w3.org/Graphics/SVG/1.1/DTD/svg11.dtd">
<svg version="1.1" id="Layer_3" xmlns="http://www.w3.org/2000/svg" xmlns:xlink="http://www.w3.org/1999/xlink" x="0px" y="0px"
	 viewBox="0 0 512 512" style="enable-background:new 0 0 512 512;" xml:space="preserve">
<style type="text/css">
	.st0{fill:#2A2D34;}
	.st1{fill:#2A2D34;}
	.st2{fill:none;stroke:#2A2D34;stroke-width:17.8598;stroke-miterlimit:10;}
	.st3{fill:none;stroke:#2A2D34;stroke-width:17.8598;stroke-miterlimit:1;}
	.st4{fill:none;stroke:#2A2D34;stroke-width:17.8598;stroke-miterlimit:10;}
	.st5{fill:none;stroke:#2A2D34;stroke-width:28.416;stroke-miterlimit:10;}
	.st6{fill:none;stroke:#2A2D34;stroke-width:17.5376;stroke-linecap:round;stroke-linejoin:round;stroke-miterlimit:10;}
	.st7{clip-path:url(#SVGID_1_);fill:#2A2D34;}
	.st8{fill:none;stroke:#2A2D34;stroke-width:13.9011;stroke-linecap:round;stroke-miterlimit:10;}
	.st9{fill:none;stroke:#2A2D34;stroke-width:12.3333;stroke-miterlimit:10;}
	.st10{fill:none;stroke:#2A2D34;stroke-width:22;stroke-miterlimit:10;}
	.st11{fill:none;stroke:#2A2D34;stroke-width:20.4266;stroke-miterlimit:10;}
	.st12{fill:none;stroke:#2A2D34;stroke-width:20;stroke-miterlimit:10;}
	.st13{fill:none;stroke:#2A2D34;stroke-width:18;stroke-miterlimit:10;}
	.st14{fill:none;stroke:#2A2D34;stroke-width:18;stroke-linecap:round;stroke-miterlimit:10;}
	.st15{fill:#48B24D;stroke:#48B24D;stroke-width:6.8866;stroke-miterlimit:10;}
	.st16{fill:#016938;}
	.st17{fill:#48B24D;}
	.st18{fill:#FFFFFF;}
	.st19{fill-rule:evenodd;clip-rule:evenodd;fill:#056AAD;}
	.st20{fill-rule:evenodd;clip-rule:evenodd;fill:#2A2D34;}
	.st21{fill:#FFFFFF;stroke:#FFFFFF;stroke-width:3.0411;stroke-miterlimit:10;}
	.st22{fill:#EC1C24;}
	.st23{fill:#EC1C24;stroke:#EC1C24;stroke-width:3.0411;stroke-miterlimit:10;}
	.st24{fill:#1B75BB;}
	.st25{fill:url(#SVGID_2_);stroke:#FFFFFF;stroke-width:6.1111;stroke-miterlimit:10;}
	.st26{fill:none;stroke:#FFFFFF;stroke-width:3.0556;stroke-miterlimit:10;}
</style>
<g>
	<g>
		<path class="st1" d="M283.2,477.9l-53.7,0.1c-10.7,0-19.6-8-20.7-18.6l-5.5-33c-10.4-3.2-20.4-7.3-30-12.4l-27.6,19.8
			c-3.3,2.7-7.9,4.4-12.7,4.4c-5.6,0-10.7-2.2-14.7-6.1l-38-37.9c-7.6-7.6-8.2-19.5-1.4-27.8l19.4-27.2c-5.1-9.6-9.3-19.7-12.5-29.9
			l-33.5-5.5c-10.2-1-18.2-9.8-18.2-20.6L34,229.5c0-10.7,8-19.6,18.6-20.7l33-5.6c3.2-10.4,7.3-20.4,12.4-30l-19.8-27.6
			c-6.5-7.9-5.9-19.8,1.6-27.4l37.9-38c7.3-7.3,19.8-7.9,27.8-1.4l27.3,19.4c9.6-5.1,19.6-9.2,30-12.5l5.5-33.5
			c1-10.2,9.9-18.2,20.6-18.2l53.7-0.1c10.7,0,19.6,8,20.7,18.6l5.6,33c10.3,3.2,20.4,7.3,30,12.4l27.6-19.8
			c3.3-2.7,7.9-4.4,12.7-4.4c5.6,0,10.7,2.1,14.7,6l38,37.9c7.6,7.5,8.2,19.5,1.4,27.8l-19.4,27.3c5.1,9.6,9.2,19.6,12.5,29.9
			l33.5,5.5c10.2,1,18.2,9.9,18.2,20.6l0.1,53.6c0,10.7-8,19.6-18.7,20.7l-32.9,5.6c-3.2,10.4-7.3,20.4-12.4,30l19.8,27.5
			c6.5,7.9,5.9,19.9-1.7,27.4l-37.9,38c-7.3,7.3-19.8,8-27.8,1.4l-27.3-19.4c-9.6,5.1-19.6,9.3-29.9,12.5l-5.5,33.5
			C302.8,469.9,293.9,477.9,283.2,477.9L283.2,477.9z M172.7,398c1.2,0,2.5,0.3,3.6,0.9c11.2,6.2,23.1,11.2,35.4,14.6
			c2.7,0.8,4.8,3.1,5.2,5.9l6.4,38c0.4,3.5,3.1,5.9,6.1,5.9l53.7-0.1c3.1,0,5.7-2.4,6-5.5l6.3-38.4c0.4-2.8,2.5-5.1,5.2-5.8
			c12.3-3.5,24.2-8.5,35.3-14.7c2.5-1.4,5.5-1.3,7.8,0.4l31.4,22.3c3.2,2.6,6.4,2,8.5-0.1l37.9-38c2.2-2.2,2.4-5.7,0.4-8.2
			l-22.7-31.7c-1.7-2.3-1.8-5.4-0.4-7.8c6.3-11.1,11.2-23.1,14.6-35.4c0.7-2.7,3-4.8,5.8-5.2l38-6.4c3.5-0.4,5.9-3,5.9-6.1
			l-0.1-53.6c0-3.1-2.4-5.7-5.4-6l-38.4-6.4c-2.8-0.5-5.1-2.5-5.9-5.2c-3.5-12.4-8.5-24.2-14.7-35.4c-1.4-2.5-1.2-5.5,0.4-7.8
			l22.4-31.4c2.3-2.8,2.1-6.3-0.2-8.5l-38-37.9c-2.1-2.2-5.8-2.3-8.1-0.4l-31.7,22.7c-2.3,1.7-5.4,1.8-7.8,0.4
			c-11.2-6.2-23.1-11.1-35.4-14.6c-2.7-0.7-4.8-3-5.2-5.8l-6.4-38c-0.4-3.6-3-5.9-6.1-5.9l-53.7,0.1c-3.1,0-5.7,2.3-6,5.5l-6.3,38.4
			c-0.5,2.8-2.5,5.1-5.2,5.9c-12.3,3.5-24.3,8.5-35.4,14.7c-2.5,1.4-5.5,1.2-7.8-0.5l-31.4-22.3c-3.2-2.5-6.4-2-8.5,0.2l-37.9,38
			c-2.2,2.2-2.4,5.7-0.4,8.1l22.7,31.7c1.7,2.3,1.8,5.4,0.4,7.9c-6.3,11.1-11.2,23-14.6,35.4c-0.8,2.7-3,4.8-5.9,5.2l-38,6.4
			c-3.6,0.4-5.9,3-5.9,6.1l0.1,53.6c0,3.2,2.3,5.7,5.4,6.1l38.5,6.3c2.8,0.5,5.1,2.5,5.9,5.3c3.5,12.2,8.4,24.2,14.7,35.4
			c1.4,2.5,1.2,5.5-0.5,7.8l-22.3,31.4c-2.3,2.8-2.1,6.3,0.1,8.5l38,37.9c2.1,2.2,5.8,2.3,8.1,0.4l31.7-22.7
			C169.8,398.5,171.2,398,172.7,398L172.7,398z M255.9,182.8"/>
	</g>
	<line class="st8" x1="325.5" y1="192.1" x2="186.5" y2="192.1"/>
	<line class="st8" x1="325.5" y1="256" x2="186.5" y2="256"/>
	<line class="st8" x1="325.5" y1="319.9" x2="186.5" y2="319.9"/>
	<path class="st1" d="M275.9,349.7c-5.5,0-9.9-4.5-9.9-9.9v-39.7c0-5.5,4.5-9.9,9.9-9.9l0,0c5.5,0,9.9,4.5,9.9,9.9v39.7
		C285.8,345.3,281.3,349.7,275.9,349.7L275.9,349.7z"/>
	<path class="st1" d="M295.7,221.8c-5.5,0-9.9-4.5-9.9-9.9v-39.7c0-5.5,4.5-9.9,9.9-9.9l0,0c5.5,0,9.9,4.5,9.9,9.9v39.7
		C305.6,217.4,301.2,221.8,295.7,221.8L295.7,221.8z"/>
	<path class="st1" d="M236.1,285.8c-5.5,0-9.9-4.5-9.9-9.9v-39.7c0-5.5,4.5-9.9,9.9-9.9l0,0c5.5,0,9.9,4.5,9.9,9.9v39.7
		C246.1,281.3,241.6,285.8,236.1,285.8L236.1,285.8z"/>
	<circle class="st9" cx="256" cy="256" r="128.3"/>
</g>
</svg>
