<?xml version="1.0" encoding="utf-8"?>
<!-- Generator: Adobe Illustrator 21.0.0, SVG Export Plug-In . SVG Version: 6.00 Build 0)  -->
<!DOCTYPE svg PUBLIC "-//W3C//DTD SVG 1.1//EN" "http://www.w3.org/Graphics/SVG/1.1/DTD/svg11.dtd">
<svg version="1.1" id="Layer_3" xmlns="http://www.w3.org/2000/svg" xmlns:xlink="http://www.w3.org/1999/xlink" x="0px" y="0px"
	 viewBox="0 0 512 512" style="enable-background:new 0 0 512 512;" xml:space="preserve">
<style type="text/css">
	.st0{fill:#2A2D34;}
	.st1{fill:#2A2D34;}
	.st2{fill:none;stroke:#2A2D34;stroke-width:17.8598;stroke-miterlimit:10;}
	.st3{fill:none;stroke:#2A2D34;stroke-width:17.8598;stroke-miterlimit:1;}
	.st4{fill:none;stroke:#2A2D34;stroke-width:17.8598;stroke-miterlimit:10;}
	.st5{fill:none;stroke:#2A2D34;stroke-width:28.416;stroke-miterlimit:10;}
	.st6{fill:none;stroke:#2A2D34;stroke-width:17.5376;stroke-linecap:round;stroke-linejoin:round;stroke-miterlimit:10;}
	.st7{clip-path:url(#SVGID_1_);fill:#2A2D34;}
	.st8{fill:none;stroke:#2A2D34;stroke-width:13.9011;stroke-linecap:round;stroke-miterlimit:10;}
	.st9{fill:none;stroke:#2A2D34;stroke-width:12.3333;stroke-miterlimit:10;}
	.st10{fill:none;stroke:#2A2D34;stroke-width:22;stroke-miterlimit:10;}
	.st11{fill:none;stroke:#2A2D34;stroke-width:20.4266;stroke-miterlimit:10;}
	.st12{fill:none;stroke:#2A2D34;stroke-width:20;stroke-miterlimit:10;}
	.st13{fill:none;stroke:#2A2D34;stroke-width:18;stroke-miterlimit:10;}
	.st14{fill:none;stroke:#2A2D34;stroke-width:18;stroke-linecap:round;stroke-miterlimit:10;}
	.st15{fill:#48B24D;stroke:#48B24D;stroke-width:6.8866;stroke-miterlimit:10;}
	.st16{fill:#016938;}
	.st17{fill:#48B24D;}
	.st18{fill:#FFFFFF;}
	.st19{fill-rule:evenodd;clip-rule:evenodd;fill:#056AAD;}
	.st20{fill-rule:evenodd;clip-rule:evenodd;fill:#2A2D34;}
	.st21{fill:#FFFFFF;stroke:#FFFFFF;stroke-width:3.0411;stroke-miterlimit:10;}
	.st22{fill:#EC1C24;}
	.st23{fill:#EC1C24;stroke:#EC1C24;stroke-width:3.0411;stroke-miterlimit:10;}
	.st24{fill:#1B75BB;}
	.st25{fill:url(#SVGID_2_);stroke:#FFFFFF;stroke-width:6.1111;stroke-miterlimit:10;}
	.st26{fill:none;stroke:#FFFFFF;stroke-width:3.0556;stroke-miterlimit:10;}
</style>
<g>
	<path class="st1" d="M220.2,128.1H340c5.3,0,9.6-4.3,9.6-9.6c0-5.3-4.3-9.6-9.6-9.6H220.2c-5.3,0-9.6,4.3-9.6,9.6
		C210.7,123.9,214.9,128.1,220.2,128.1L220.2,128.1z M220.2,128.1"/>
	<path class="st1" d="M340,232.6H220.2c-5.3,0-9.7,4.3-9.7,9.7s4.3,9.6,9.7,9.6H340c5.3,0,9.7-4.3,9.7-9.6S345.3,232.6,340,232.6
		L340,232.6z M340,232.6"/>
	<circle class="st1" cx="401.2" cy="242.2" r="19.3"/>
	<circle class="st1" cx="401.2" cy="118.5" r="19.3"/>
	<path class="st1" d="M439,391.4c-17.1,0-31.5,11.7-35.7,27.6H291.8c-3.4-12.9-13.5-22.9-26.3-26.3v-39c0-5.1-4.2-9.4-9.4-9.4
		c-5.1,0-9.4,4.2-9.4,9.4v39c-12.9,3.4-22.9,13.5-26.3,26.3H108.6c-4.1-15.8-18.5-27.6-35.7-27.6C52.6,391.4,36,408,36,428.4
		c0,20.4,16.6,36.9,36.9,36.9c17.1,0,31.5-11.7,35.7-27.6h111.8c4.1,15.8,18.5,27.6,35.7,27.6c17.2,0,31.5-11.7,35.7-27.6h111.6
		c4.1,15.8,18.5,27.6,35.7,27.6c20.4,0,36.9-16.6,36.9-36.9C476,408,459.3,391.4,439,391.4L439,391.4z M73,446.6
		c-10.1,0-18.3-8.2-18.3-18.3c0-10.1,8.2-18.3,18.3-18.3c10.1,0,18.3,8.2,18.3,18.3C91.3,438.3,83,446.6,73,446.6L73,446.6z
		 M256.1,446.6c-10.1,0-18.3-8.2-18.3-18.3c0-10.1,8.2-18.3,18.3-18.3c10.1,0,18.3,8.2,18.3,18.3
		C274.4,438.3,266.2,446.6,256.1,446.6L256.1,446.6z M439,446.6c-10.1,0-18.3-8.2-18.3-18.3c0-10.1,8.2-18.3,18.3-18.3
		c10.1,0,18.3,8.2,18.3,18.3C457.3,438.3,449.1,446.6,439,446.6L439,446.6z M439,446.6"/>
	<path class="st1" d="M474.7,222.9v-18.9c0-9.2-3.8-17.6-9.7-23.7c6-6.1,9.7-14.5,9.7-23.7V80.4c0-18.6-15.1-33.7-33.7-33.7H71
		c-18.6,0-33.7,15.1-33.7,33.7v76.4c0,9.2,3.8,17.6,9.7,23.7c-6,6.1-9.7,14.5-9.7,23.7v69.4l0,0v6.9c0,18.6,15.1,33.7,33.7,33.7h370
		c18.6,0,33.7-15.1,33.7-33.7V222.9L474.7,222.9z M70.9,66.8h370c7.5,0,13.7,6.1,13.7,13.6v76.4c0,7.5-6.1,13.7-13.7,13.7H71
		c-7.5,0-13.6-6.1-13.6-13.7V80.4h-0.1C57.3,72.9,63.4,66.8,70.9,66.8z M441.1,294h-370c-7.5,0-13.7-6.1-13.7-13.6v-6.9h0v-69.4
		c0-7.5,6.1-13.6,13.6-13.6h370c7.5,0,13.7,6.1,13.7,13.6v18.9h-0.1v57.4h0.1C454.7,287.9,448.6,294,441.1,294z"/>
</g>
</svg>
