<?xml version="1.0" encoding="utf-8"?>
<!-- Generator: Adobe Illustrator 21.0.0, SVG Export Plug-In . SVG Version: 6.00 Build 0)  -->
<!DOCTYPE svg PUBLIC "-//W3C//DTD SVG 1.1//EN" "http://www.w3.org/Graphics/SVG/1.1/DTD/svg11.dtd">
<svg version="1.1" id="Layer_3" xmlns="http://www.w3.org/2000/svg" xmlns:xlink="http://www.w3.org/1999/xlink" x="0px" y="0px"
	 viewBox="0 0 512 512" style="enable-background:new 0 0 512 512;" xml:space="preserve">
<style type="text/css">
	.st0{fill:#2A2D34;}
	.st1{fill:#2A2D34;}
	.st2{fill:none;stroke:#2A2D34;stroke-width:17.8598;stroke-miterlimit:10;}
	.st3{fill:none;stroke:#2A2D34;stroke-width:17.8598;stroke-miterlimit:1;}
	.st4{fill:none;stroke:#2A2D34;stroke-width:17.8598;stroke-miterlimit:10;}
	.st5{fill:none;stroke:#2A2D34;stroke-width:28.416;stroke-miterlimit:10;}
	.st6{fill:none;stroke:#2A2D34;stroke-width:17.5376;stroke-linecap:round;stroke-linejoin:round;stroke-miterlimit:10;}
	.st7{clip-path:url(#SVGID_1_);fill:#2A2D34;}
	.st8{fill:none;stroke:#2A2D34;stroke-width:13.9011;stroke-linecap:round;stroke-miterlimit:10;}
	.st9{fill:none;stroke:#2A2D34;stroke-width:12.3333;stroke-miterlimit:10;}
	.st10{fill:none;stroke:#2A2D34;stroke-width:22;stroke-miterlimit:10;}
	.st11{fill:none;stroke:#2A2D34;stroke-width:20.4266;stroke-miterlimit:10;}
	.st12{fill:none;stroke:#2A2D34;stroke-width:20;stroke-miterlimit:10;}
	.st13{fill:none;stroke:#2A2D34;stroke-width:18;stroke-miterlimit:10;}
	.st14{fill:none;stroke:#2A2D34;stroke-width:18;stroke-linecap:round;stroke-miterlimit:10;}
	.st15{fill:#48B24D;stroke:#48B24D;stroke-width:6.8866;stroke-miterlimit:10;}
	.st16{fill:#016938;}
	.st17{fill:#48B24D;}
	.st18{fill:#FFFFFF;}
	.st19{fill-rule:evenodd;clip-rule:evenodd;fill:#056AAD;}
	.st20{fill-rule:evenodd;clip-rule:evenodd;fill:#2A2D34;}
	.st21{fill:#FFFFFF;stroke:#FFFFFF;stroke-width:3.0411;stroke-miterlimit:10;}
	.st22{fill:#EC1C24;}
	.st23{fill:#EC1C24;stroke:#EC1C24;stroke-width:3.0411;stroke-miterlimit:10;}
	.st24{fill:#1B75BB;}
	.st25{fill:url(#SVGID_2_);stroke:#FFFFFF;stroke-width:6.1111;stroke-miterlimit:10;}
	.st26{fill:none;stroke:#FFFFFF;stroke-width:3.0556;stroke-miterlimit:10;}
</style>
<g>
	<path class="st6" d="M291.8,392.9h-47.3c-19.1,0-34.6,16.6-34.6,37c0,20.4,15.5,37,34.6,37l67.1-0.1c0.8-0.1,1.5,0.1,2.3,0
		l50.4-0.1c16,0,30.5-9.6,36.8-24.3c6.3-14.8,3.2-31.8-8-43.4l-78.4-68.2l-2.1-35.1l84.7,61.6c5.2,3.8,11.2,5.6,17.2,5.6
		c9,0,17.9-4.2,23.7-12c9.5-13.1,6.6-31.3-6.4-40.8l0,0l-78.4-57l-24.8-56.1c-4.7-11.5-15.9-18.4-27.7-18.1l0,0h-89.5l0,0
		c-11.7-0.3-23,6.6-27.7,18.1l-24.8,56.1l-78.4,57c-13.1,9.5-15.9,27.8-6.4,40.8c5.7,7.9,14.6,12,23.7,12c6,0,12-1.8,17.2-5.6
		l84.7-61.6l-2.2,35.5l-80.1,68.1c-11.1,11.6-14.3,28.7-8,43.4c6.3,14.8,20.8,24.3,36.8,24.3h38.3 M431.6,310.1"/>
	<g>
		<path class="st1" d="M257.3,54.5c24.2,0,43.8,19.7,43.8,43.8s-19.7,43.8-43.8,43.8c-24.2,0-43.8-19.7-43.8-43.8
			S233.1,54.5,257.3,54.5 M257.3,37c-33.9,0-61.4,27.5-61.4,61.4s27.5,61.4,61.4,61.4c33.9,0,61.4-27.5,61.4-61.4S291.2,37,257.3,37
			L257.3,37z"/>
	</g>
</g>
</svg>
