<?xml version="1.0" encoding="utf-8"?>
<!-- Generator: Adobe Illustrator 21.0.0, SVG Export Plug-In . SVG Version: 6.00 Build 0)  -->
<!DOCTYPE svg PUBLIC "-//W3C//DTD SVG 1.1//EN" "http://www.w3.org/Graphics/SVG/1.1/DTD/svg11.dtd">
<svg version="1.1" id="Layer_3" xmlns="http://www.w3.org/2000/svg" xmlns:xlink="http://www.w3.org/1999/xlink" x="0px" y="0px"
	 viewBox="0 0 512 512" style="enable-background:new 0 0 512 512;" xml:space="preserve">
<style type="text/css">
	.st0{fill:#2A2D34;}
	.st1{fill:#2A2D34;}
	.st2{fill:none;stroke:#2A2D34;stroke-width:17.8598;stroke-miterlimit:10;}
	.st3{fill:none;stroke:#2A2D34;stroke-width:17.8598;stroke-miterlimit:1;}
	.st4{fill:none;stroke:#2A2D34;stroke-width:17.8598;stroke-miterlimit:10;}
	.st5{fill:none;stroke:#2A2D34;stroke-width:28.416;stroke-miterlimit:10;}
	.st6{fill:none;stroke:#2A2D34;stroke-width:17.5376;stroke-linecap:round;stroke-linejoin:round;stroke-miterlimit:10;}
	.st7{clip-path:url(#SVGID_1_);fill:#2A2D34;}
	.st8{fill:none;stroke:#2A2D34;stroke-width:13.9011;stroke-linecap:round;stroke-miterlimit:10;}
	.st9{fill:none;stroke:#2A2D34;stroke-width:12.3333;stroke-miterlimit:10;}
	.st10{fill:none;stroke:#2A2D34;stroke-width:22;stroke-miterlimit:10;}
	.st11{fill:none;stroke:#2A2D34;stroke-width:20.4266;stroke-miterlimit:10;}
	.st12{fill:none;stroke:#2A2D34;stroke-width:20;stroke-miterlimit:10;}
	.st13{fill:none;stroke:#2A2D34;stroke-width:18;stroke-miterlimit:10;}
	.st14{fill:none;stroke:#2A2D34;stroke-width:18;stroke-linecap:round;stroke-miterlimit:10;}
	.st15{fill:#48B24D;stroke:#48B24D;stroke-width:6.8866;stroke-miterlimit:10;}
	.st16{fill:#016938;}
	.st17{fill:#48B24D;}
	.st18{fill:#FFFFFF;}
	.st19{fill-rule:evenodd;clip-rule:evenodd;fill:#056AAD;}
	.st20{fill-rule:evenodd;clip-rule:evenodd;fill:#2A2D34;}
	.st21{fill:#FFFFFF;stroke:#FFFFFF;stroke-width:3.0411;stroke-miterlimit:10;}
	.st22{fill:#EC1C24;}
	.st23{fill:#EC1C24;stroke:#EC1C24;stroke-width:3.0411;stroke-miterlimit:10;}
	.st24{fill:#1B75BB;}
	.st25{fill:url(#SVGID_2_);stroke:#FFFFFF;stroke-width:6.1111;stroke-miterlimit:10;}
	.st26{fill:none;stroke:#FFFFFF;stroke-width:3.0556;stroke-miterlimit:10;}
</style>
<g>
	<defs>
		<rect id="SVGID_3_" x="36.2" y="34" width="439.6" height="444"/>
	</defs>
	<clipPath id="SVGID_1_">
		<use xlink:href="#SVGID_3_"  style="overflow:visible;"/>
	</clipPath>
	<path class="st7" d="M462.1,74.6L435.5,48c-17.3-17.3-46.6-18.4-65.2-2.2l-46.7,40.5c-0.6,0.5-1.1,1.1-1.5,1.8l-45.5,75.8
		l-29.2,9.7c-2.5,0.8-4.3,2.9-4.9,5.4c-0.6,2.5,0.2,5.2,2,7l79.6,79.6c1.4,1.4,3.3,2.2,5.3,2.2c0.6,0,1.2-0.1,1.7-0.2
		c2.5-0.6,4.6-2.5,5.4-4.9l9.7-29.2l76.9-46.4c0.7-0.4,1.3-0.9,1.8-1.5l39.6-45.8C480.5,121.2,479.4,92,462.1,74.6L462.1,74.6z
		 M453.1,129.9l-38.8,44.9l-78.3,47.3c-1.5,0.9-2.7,2.4-3.2,4.1l-6.8,20.3l-17.9-17.9c0,0,0,0,0,0L281.5,202c0,0,0,0,0,0l-17.9-17.9
		l20.3-6.8c1.7-0.6,3.1-1.7,4.1-3.3l46.3-77.1l45.8-39.7c12.8-11.1,32.8-10.4,44.7,1.5l26.6,26.6
		C463.3,97.2,464.1,117.2,453.1,129.9L453.1,129.9z M453.1,129.9"/>
	<path class="st7" d="M440.8,336c-22-22-54.5-29.7-83.9-20.2L197.4,156.3c9.5-29.4,1.9-61.8-20.2-83.9c-23.2-23.2-58-30.5-88.6-18.5
		c-2.4,0.9-4.1,3-4.6,5.5c-0.5,2.5,0.2,5.1,2,6.8l47.8,47.8L102,145.8L54.2,98c-1.8-1.8-4.4-2.6-6.8-2c-2.5,0.5-4.5,2.2-5.5,4.6
		c-12,30.6-4.7,65.3,18.5,88.6c22,22,54.5,29.7,83.9,20.2l59.7,59.7l-74.3,74.3l-47.3,26.4c-1.3,0.7-2.4,1.8-3.1,3.2l-21.2,42.5
		c-1.4,2.9-0.9,6.4,1.4,8.7l26.5,26.5c1.4,1.4,3.4,2.2,5.3,2.2c1.1,0,2.3-0.3,3.4-0.8l42.5-21.2c1.3-0.7,2.5-1.7,3.2-3.1l26.4-47.3
		l74.3-74.3l62.7,62.7c-9.5,29.4-1.9,61.8,20.2,83.9c15.8,15.8,36.9,24.2,58.4,24.2c10.1,0,20.3-1.9,30.1-5.7c2.4-0.9,4.1-3,4.6-5.5
		c0.5-2.5-0.2-5-2-6.8l-47.8-47.8l31.9-31.8l47.8,47.8c1.8,1.8,4.4,2.6,6.8,2c2.5-0.5,4.5-2.2,5.5-4.6
		C471.3,394,464,359.2,440.8,336L440.8,336z M155.4,370.6c-0.5,0.5-0.9,1-1.2,1.6l-25.8,46.1l-35.6,17.8L74,417.3l17.8-35.6
		l46.1-25.8c0.6-0.3,1.2-0.8,1.6-1.2l75-75l15.9,15.9L155.4,370.6z M448.7,407.6l-44.1-44.1c-2.9-2.9-7.7-2.9-10.6,0l-42.5,42.5
		c-1.4,1.4-2.2,3.3-2.2,5.3c0,2,0.8,3.9,2.2,5.3l44.1,44.1c-21.9,4.3-44.8-2.4-61-18.5c-19-19-24.9-47.4-15.1-72.5
		c1.1-2.8,0.4-5.9-1.7-8L151.5,195.4c-1.4-1.4-3.4-2.2-5.3-2.2c-0.9,0-1.8,0.2-2.7,0.5c-25,9.8-53.5,3.9-72.5-15.1
		c-16.1-16.1-22.9-39.1-18.5-61l44.1,44.1c2.9,2.9,7.7,2.9,10.6,0l42.5-42.5c2.9-2.9,2.9-7.7,0-10.6l-44.1-44.1
		c21.9-4.4,44.8,2.4,61,18.5c19,19,24.9,47.4,15.1,72.5c-1.1,2.8-0.4,5.9,1.7,8l166.3,166.3c2.1,2.1,5.3,2.8,8,1.7
		c25-9.8,53.5-3.9,72.5,15.1C446.3,362.7,453,385.7,448.7,407.6L448.7,407.6z M448.7,407.6"/>
</g>
</svg>
