<?xml version="1.0" encoding="utf-8"?>
<!-- Generator: Adobe Illustrator 21.0.0, SVG Export Plug-In . SVG Version: 6.00 Build 0)  -->
<!DOCTYPE svg PUBLIC "-//W3C//DTD SVG 1.1//EN" "http://www.w3.org/Graphics/SVG/1.1/DTD/svg11.dtd">
<svg version="1.1" id="Layer_3" xmlns="http://www.w3.org/2000/svg" xmlns:xlink="http://www.w3.org/1999/xlink" x="0px" y="0px"
	 viewBox="0 0 512 512" style="enable-background:new 0 0 512 512;" xml:space="preserve">
<style type="text/css">
	.st0{fill:#2A2D34;}
	.st1{fill:#2A2D34;}
	.st2{fill:none;stroke:#2A2D34;stroke-width:17.8598;stroke-miterlimit:10;}
	.st3{fill:none;stroke:#2A2D34;stroke-width:17.8598;stroke-miterlimit:1;}
	.st4{fill:none;stroke:#2A2D34;stroke-width:17.8598;stroke-miterlimit:10;}
	.st5{fill:none;stroke:#2A2D34;stroke-width:28.416;stroke-miterlimit:10;}
	.st6{fill:none;stroke:#2A2D34;stroke-width:17.5376;stroke-linecap:round;stroke-linejoin:round;stroke-miterlimit:10;}
	.st7{clip-path:url(#SVGID_1_);fill:#2A2D34;}
	.st8{fill:none;stroke:#2A2D34;stroke-width:13.9011;stroke-linecap:round;stroke-miterlimit:10;}
	.st9{fill:none;stroke:#2A2D34;stroke-width:12.3333;stroke-miterlimit:10;}
	.st10{fill:none;stroke:#2A2D34;stroke-width:22;stroke-miterlimit:10;}
	.st11{fill:none;stroke:#2A2D34;stroke-width:20.4266;stroke-miterlimit:10;}
	.st12{fill:none;stroke:#2A2D34;stroke-width:20;stroke-miterlimit:10;}
	.st13{fill:none;stroke:#2A2D34;stroke-width:18;stroke-miterlimit:10;}
	.st14{fill:none;stroke:#2A2D34;stroke-width:18;stroke-linecap:round;stroke-miterlimit:10;}
	.st15{fill:#48B24D;stroke:#48B24D;stroke-width:6.8866;stroke-miterlimit:10;}
	.st16{fill:#016938;}
	.st17{fill:#48B24D;}
	.st18{fill:#FFFFFF;}
	.st19{fill-rule:evenodd;clip-rule:evenodd;fill:#056AAD;}
	.st20{fill-rule:evenodd;clip-rule:evenodd;fill:#2A2D34;}
	.st21{fill:#FFFFFF;stroke:#FFFFFF;stroke-width:3.0411;stroke-miterlimit:10;}
	.st22{fill:#EC1C24;}
	.st23{fill:#EC1C24;stroke:#EC1C24;stroke-width:3.0411;stroke-miterlimit:10;}
	.st24{fill:#1B75BB;}
	.st25{fill:url(#SVGID_2_);stroke:#FFFFFF;stroke-width:6.1111;stroke-miterlimit:10;}
	.st26{fill:none;stroke:#FFFFFF;stroke-width:3.0556;stroke-miterlimit:10;}
</style>
<g>
	<path class="st1" d="M117.2,316.2l60.2-60.2l-60.2-60.2c0,0,0,25.1,0,31.3c-11.2,0-55,0-55,0c-13.7,0-13.9-21.2-13.9-22.1l-14.4,0
		c0,0,0,0,0,0.1c0,0.1,0,46.6,0,46.6c0,24.4,14.6,33.1,28.3,33.1c0,0,43.7,0,55,0C117.2,291.1,117.2,316.2,117.2,316.2z"/>
	<g>
		<path class="st1" d="M253.5,328.5c40,16.7,86.1-2.2,102.8-42.2c16.7-40-2.2-86.1-42.2-102.8c-40-16.7-86.1,2.2-102.8,42.2
			C194.5,265.7,213.5,311.8,253.5,328.5z M223.4,230.8c13.9-33.3,52.4-49.1,85.7-35.2c33.3,13.9,49.1,52.4,35.2,85.7
			c-13.9,33.3-52.4,49.1-85.7,35.1S209.5,264.1,223.4,230.8z"/>
		<path class="st1" d="M477.9,232.2c0-9.4-7-17.1-15.9-18l-29.3-4.8c-2.8-9.1-6.5-17.8-10.9-26.2l17-23.8c5.9-7.3,5.4-17.7-1.3-24.3
			l-33.3-33.2c-3.4-3.4-8-5.3-12.8-5.3c-4.2,0-8.3,1.5-11.1,3.8l-24.1,17.3c-8.4-4.4-17.2-8-26.2-10.8l-4.9-28.8
			c-1-9.3-8.7-16.3-18.1-16.3L260,61.9c-9.4,0-17.1,7-18,15.9l-4.8,29.3c-9.1,2.8-17.9,6.5-26.2,10.9l-23.8-17
			c-7-5.7-17.9-5.1-24.3,1.3l-33.2,33.3c-6.6,6.6-7.1,17.1-1.4,24l17.3,24.1l1,1.9c0.2,0.4,0.4,0.8,0.7,1.2c2.1,3.2,6.4,4,9.4,2
			c1.4-1,2.3-2.5,2.7-4.1c0,0,0-0.1,0-0.1c0.1-0.5,0.1-1,0.1-1.5c0-0.3-0.1-0.6-0.1-0.9c0-0.2-0.1-0.4-0.1-0.6
			c-0.1-0.3-0.2-0.6-0.3-0.8c-0.2-0.5-0.4-1-0.7-1.4c-0.1-0.1-0.1-0.2-0.2-0.2l-19.6-27.4c-1.8-2.1-1.6-5.2,0.3-7.1l33.1-33.2
			c1.9-1.9,4.7-2.3,7.5-0.1l27.5,19.5c2,1.5,4.7,1.6,6.9,0.4c9.7-5.5,20.1-9.8,30.9-12.9c2.4-0.7,4.2-2.7,4.6-5.1l5.5-33.6
			c0.3-2.7,2.5-4.8,5.3-4.8l46.9-0.1c2.8,0,5,2,5.4,5.2l5.6,33.2c0.4,2.4,2.2,4.4,4.6,5.1c10.8,3.1,21.2,7.4,31,12.8
			c2.2,1.2,4.8,1.1,6.9-0.4l27.7-19.9c2-1.7,5.2-1.5,7.1,0.4l33.2,33.1c1.9,1.9,2.1,5,0.1,7.5L409,179.1c-1.4,2-1.6,4.7-0.4,6.9
			c5.5,9.7,9.8,20.1,12.9,30.9c0.7,2.4,2.7,4.2,5.1,4.6l33.6,5.6c2.7,0.2,4.8,2.6,4.8,5.3l0.1,46.9c0,2.7-2.1,5-5.2,5.4l-33.2,5.6
			c-2.5,0.4-4.4,2.2-5.1,4.7c-3,10.8-7.3,21.2-12.8,30.9c-1.2,2.2-1.1,4.8,0.4,6.9l19.9,27.7c1.8,2.1,1.6,5.2-0.3,7.1l-33.2,33.2
			c-1.9,1.9-4.7,2.4-7.5,0.1l-27.4-19.5c-2-1.5-4.7-1.6-6.9-0.4c-9.8,5.5-20.2,9.8-30.9,12.9c-2.4,0.7-4.2,2.7-4.6,5.1l-5.6,33.6
			c-0.3,2.7-2.6,4.8-5.3,4.8l-46.9,0.1c-2.7,0-5-2.1-5.4-5.2l-5.6-33.2c-0.4-2.5-2.3-4.5-4.7-5.2c-10.7-3-21.1-7.3-30.9-12.8
			c-1-0.5-2-0.8-3.1-0.8c-1.3,0-2.6,0.4-3.7,1.2l-27.7,19.9c-2,1.7-5.2,1.5-7.1-0.3l-33.2-33.2c-1.9-1.9-2.1-5-0.1-7.5l19.5-27.4
			c0.8-1.1,1.1-2.8,1-4.2c-0.1-1.7-1.1-3.2-2.6-3.9c-6.3-2.9-11.2,3.9-11.2,3.9l-16.9,23.8c-5.9,7.3-5.4,17.7,1.2,24.3l33.2,33.1
			c3.5,3.4,8,5.3,12.9,5.3c4.2,0,8.3-1.5,11.1-3.9l24.1-17.3c8.4,4.4,17.2,8.1,26.2,10.8l4.8,28.9c1,9.3,8.7,16.3,18.1,16.3
			l46.9-0.1c9.4,0,17.1-7,18-16l4.8-29.3c9-2.8,17.8-6.5,26.2-10.9l23.8,17c7,5.7,18,5.1,24.3-1.3l33.1-33.2
			c6.6-6.6,7.1-17.1,1.5-24L422,328.4c4.4-8.4,8-17.2,10.8-26.2l28.8-4.9c9.3-0.9,16.3-8.7,16.3-18.1L477.9,232.2z"/>
	</g>
</g>
</svg>
