<?xml version="1.0" encoding="utf-8"?>
<!-- Generator: Adobe Illustrator 21.0.0, SVG Export Plug-In . SVG Version: 6.00 Build 0)  -->
<!DOCTYPE svg PUBLIC "-//W3C//DTD SVG 1.1//EN" "http://www.w3.org/Graphics/SVG/1.1/DTD/svg11.dtd">
<svg version="1.1" id="Layer_3" xmlns="http://www.w3.org/2000/svg" xmlns:xlink="http://www.w3.org/1999/xlink" x="0px" y="0px"
	 viewBox="0 0 512 512" style="enable-background:new 0 0 512 512;" xml:space="preserve">
<style type="text/css">
	.st0{fill:#2A2D34;}
	.st1{fill:#2A2D34;}
	.st2{fill:none;stroke:#2A2D34;stroke-width:17.8598;stroke-miterlimit:10;}
	.st3{fill:none;stroke:#2A2D34;stroke-width:17.8598;stroke-miterlimit:1;}
	.st4{fill:none;stroke:#2A2D34;stroke-width:17.8598;stroke-miterlimit:10;}
	.st5{fill:none;stroke:#2A2D34;stroke-width:28.416;stroke-miterlimit:10;}
	.st6{fill:none;stroke:#2A2D34;stroke-width:17.5376;stroke-linecap:round;stroke-linejoin:round;stroke-miterlimit:10;}
	.st7{clip-path:url(#SVGID_1_);fill:#2A2D34;}
	.st8{fill:none;stroke:#2A2D34;stroke-width:13.9011;stroke-linecap:round;stroke-miterlimit:10;}
	.st9{fill:none;stroke:#2A2D34;stroke-width:12.3333;stroke-miterlimit:10;}
	.st10{fill:none;stroke:#2A2D34;stroke-width:22;stroke-miterlimit:10;}
	.st11{fill:none;stroke:#2A2D34;stroke-width:20.4266;stroke-miterlimit:10;}
	.st12{fill:none;stroke:#2A2D34;stroke-width:20;stroke-miterlimit:10;}
	.st13{fill:none;stroke:#2A2D34;stroke-width:18;stroke-miterlimit:10;}
	.st14{fill:none;stroke:#2A2D34;stroke-width:18;stroke-linecap:round;stroke-miterlimit:10;}
	.st15{fill:#48B24D;stroke:#48B24D;stroke-width:6.8866;stroke-miterlimit:10;}
	.st16{fill:#016938;}
	.st17{fill:#48B24D;}
	.st18{fill:#FFFFFF;}
	.st19{fill-rule:evenodd;clip-rule:evenodd;fill:#056AAD;}
	.st20{fill-rule:evenodd;clip-rule:evenodd;fill:#2A2D34;}
	.st21{fill:#FFFFFF;stroke:#FFFFFF;stroke-width:3.0411;stroke-miterlimit:10;}
	.st22{fill:#EC1C24;}
	.st23{fill:#EC1C24;stroke:#EC1C24;stroke-width:3.0411;stroke-miterlimit:10;}
	.st24{fill:#1B75BB;}
	.st25{fill:url(#SVGID_2_);stroke:#FFFFFF;stroke-width:6.1111;stroke-miterlimit:10;}
	.st26{fill:none;stroke:#FFFFFF;stroke-width:3.0556;stroke-miterlimit:10;}
</style>
<path class="st1" d="M142.1,359.1l107.7-110.8c0.1-0.1,0.2-0.1,0.3,0l20.9,10.9c0.2,0.1,0.2,0.3,0,0.4l-27.8,12.7
	c-9.9,4.5-16.3,14.9-14.8,25.6c2.2,15.1,17.2,24.1,31.1,19.8c4.5-1.4,9.1-3.1,13.4-5l54.1-23.8c5.2-2.3,8.4-7.5,8.1-13.2l-1.4-24.1
	c-0.3-4.6-2.5-8.8-6.2-11.6l-38.7-29.2c-0.1-0.1-0.1-0.3,0-0.4l37.6-18c0.1,0,0.2,0,0.3,0.1l23.3,35.4c4.2,6.3,12,9.1,19.2,6.9
	l29-9.1c11.6-3.6,19.5-15.4,16.9-27.3c-2.9-13.5-16.7-21.3-29.6-17.3l-8.5,2.7c-0.1,0-0.2,0-0.3-0.1l-16.7-30.5L360,153l-39.7-25.6
	c-9.9-6.4-22.1-8.1-33.4-4.5c-1.7,0.5-3.4,1.2-5.1,2c0,0-0.1,0-0.1,0l-35.7-5.8c0,0-0.1,0-0.1,0l-59.1,32.3
	c-13.1,7.2-17.5,25-6.9,37.8c6.4,7.7,17.2,10.2,26.7,7.2l3.5-1.1l-1.7,1.8L102.6,321.7c-5.9,6.9-7.7,16.2-5,24.8l0.7,2.1
	c4.3,13.8,19,21.5,32.8,17.2C135.2,364.5,139,362.2,142.1,359.1z M319,265.8c0.3,5.6-2.9,10.9-8.1,13.2l-44.3,19.5
	c-3.8,1.7-7.8,3.2-11.8,4.4c-4.6,1.4-9.5-1.1-10.9-5.7c-1.3-4.2,0.7-8.7,4.7-10.5l39.5-18c7.5-3.4,7.8-13.9,0.5-17.7l-27.2-14.2
	c-0.1-0.1-0.2-0.2-0.1-0.3l15-15.5c0.1-0.1,0.2-0.1,0.3,0l35.8,27.1c3.7,2.8,5.9,7,6.2,11.6L319,265.8z M207.4,180
	c-0.4,0.2-0.9,0.4-1.3,0.5l-4.3,1.3c-3.3,1-7.1,0.5-9.5-1.9c-4.8-4.8-3.2-12.1,1.9-14.9l54.5-29.8c0,0,0.1,0,0.1,0l16.4,2.7
	c0.2,0,0.2,0.2,0.1,0.4L241,163.5c0,0,0,0-0.1,0L207.4,180z M113,344l-0.7-2.1c-1.1-3.5-0.3-7.3,2.1-10.2l105.4-124.1c0,0,0,0,0,0
	l61.5-63.7c2.8-2.9,6.3-5.1,10.2-6.3c6.9-2.2,14.3-1.1,20.4,2.8l36.4,23.5c0,0,0.1,0,0.1,0.1l14.1,25.8c4,7.3,12.6,10.8,20.5,8.3
	l7.1-2.2c4.1-1.3,8.4,1,9.7,5.1c1.3,4.1-1,8.4-5.1,9.7l-19.1,6c-7.2,2.3-15.1-0.5-19.2-6.9l-17.6-26.8c-3.8-5.8-11.4-8-17.7-4.9
	l-45.5,21.7c0,0,0,0-0.1,0L131,348.3c-1.2,1.3-2.8,2.2-4.5,2.8C120.8,352.8,114.8,349.7,113,344z"/>
<path class="st1" d="M372.5,129.2c21-6.6,32.8-29.1,26.2-50.1c-6.6-21-29.1-32.8-50.1-26.2c-21,6.6-32.8,29.1-26.2,50.1
	C328.9,124.1,351.4,135.8,372.5,129.2z M352.6,65.6c14-4.4,29,3.4,33.4,17.5c4.4,14-3.4,29-17.5,33.4c-14,4.4-29-3.5-33.4-17.5
	C330.7,85,338.5,70,352.6,65.6z"/>
<circle class="st13" cx="76.5" cy="427.4" r="33.5"/>
<circle class="st13" cx="256" cy="427.4" r="33.5"/>
<circle class="st13" cx="435.5" cy="427.4" r="33.5"/>
<line class="st14" x1="76.5" y1="393.9" x2="435.5" y2="393.9"/>
</svg>
