<?xml version="1.0" encoding="utf-8"?>
<!-- Generator: Adobe Illustrator 21.0.0, SVG Export Plug-In . SVG Version: 6.00 Build 0)  -->
<!DOCTYPE svg PUBLIC "-//W3C//DTD SVG 1.1//EN" "http://www.w3.org/Graphics/SVG/1.1/DTD/svg11.dtd">
<svg version="1.1" id="Layer_3" xmlns="http://www.w3.org/2000/svg" xmlns:xlink="http://www.w3.org/1999/xlink" x="0px" y="0px"
	 viewBox="0 0 512 512" style="enable-background:new 0 0 512 512;" xml:space="preserve">
<style type="text/css">
	.st0{fill:#2A2D34;}
	.st1{fill:#2A2D34;}
	.st2{fill:none;stroke:#2A2D34;stroke-width:17.8598;stroke-miterlimit:10;}
	.st3{fill:none;stroke:#2A2D34;stroke-width:17.8598;stroke-miterlimit:1;}
	.st4{fill:none;stroke:#2A2D34;stroke-width:17.8598;stroke-miterlimit:10;}
	.st5{fill:none;stroke:#2A2D34;stroke-width:28.416;stroke-miterlimit:10;}
	.st6{fill:none;stroke:#2A2D34;stroke-width:17.5376;stroke-linecap:round;stroke-linejoin:round;stroke-miterlimit:10;}
	.st7{clip-path:url(#SVGID_1_);fill:#2A2D34;}
	.st8{fill:none;stroke:#2A2D34;stroke-width:13.9011;stroke-linecap:round;stroke-miterlimit:10;}
	.st9{fill:none;stroke:#2A2D34;stroke-width:12.3333;stroke-miterlimit:10;}
	.st10{fill:none;stroke:#2A2D34;stroke-width:22;stroke-miterlimit:10;}
	.st11{fill:none;stroke:#2A2D34;stroke-width:20.4266;stroke-miterlimit:10;}
	.st12{fill:none;stroke:#2A2D34;stroke-width:20;stroke-miterlimit:10;}
	.st13{fill:none;stroke:#2A2D34;stroke-width:18;stroke-miterlimit:10;}
	.st14{fill:none;stroke:#2A2D34;stroke-width:18;stroke-linecap:round;stroke-miterlimit:10;}
	.st15{fill:#48B24D;stroke:#48B24D;stroke-width:6.8866;stroke-miterlimit:10;}
	.st16{fill:#016938;}
	.st17{fill:#48B24D;}
	.st18{fill:#FFFFFF;}
	.st19{fill-rule:evenodd;clip-rule:evenodd;fill:#056AAD;}
	.st20{fill-rule:evenodd;clip-rule:evenodd;fill:#2A2D34;}
	.st21{fill:#FFFFFF;stroke:#FFFFFF;stroke-width:3.0411;stroke-miterlimit:10;}
	.st22{fill:#EC1C24;}
	.st23{fill:#EC1C24;stroke:#EC1C24;stroke-width:3.0411;stroke-miterlimit:10;}
	.st24{fill:#1B75BB;}
	.st25{fill:url(#SVGID_2_);stroke:#FFFFFF;stroke-width:6.1111;stroke-miterlimit:10;}
	.st26{fill:none;stroke:#FFFFFF;stroke-width:3.0556;stroke-miterlimit:10;}
</style>
<circle class="st1" cx="107.3" cy="439.3" r="38.5"/>
<circle class="st1" cx="256" cy="439.3" r="38.5"/>
<circle class="st1" cx="404.8" cy="439.3" r="38.5"/>
<g>
	<path class="st10" d="M438,46.7H74c-15.4,0-28,12.6-28,28v266c0,15.4,12.6,28,28,28h63.8c-0.8-9.2-1.7-18.4-2.2-27.6
		c-0.2-4.9-1.9-7-6.7-8.2c-11.8-3-16.2-9-16.3-21.2c-0.1-34,0.1-68-0.1-102c0-7.7,3-13.3,9.6-16.2c7.6-3.3,15.7-5.7,23.6-8.3
		c5.4-1.7,8.7-0.1,11.1,5.5c5,11.3,10.9,22.3,16.4,33.4c0.6-0.1,1.2-0.2,1.7-0.3c4.9-10.4,10.2-20.6,14.6-31.1
		c2.8-6.7,6.7-9.2,14.1-9.1c28.7,0.5,57.5,0.1,86.2,0.3c16,0.1,32.1,0.6,48.1,1c3.1,0.1,6.7-0.5,5.2,4.9
		c-3.5,12.4-16.9,22.8-29.8,22.8c-25.4,0-50.8,0.1-76.1-0.1c-5.6-0.1-8.4,1.8-9.3,7.3c-2.3,15.6-5.4,31.1-7.2,46.8
		c-3.9,34-7.3,68-10.9,102h228c15.4,0,28-12.6,28-28v-266C466,59.3,453.4,46.7,438,46.7z"/>
	<circle class="st11" cx="173.7" cy="124.2" r="34"/>
</g>
</svg>
