<?xml version="1.0" encoding="utf-8"?>
<!-- Generator: Adobe Illustrator 21.0.0, SVG Export Plug-In . SVG Version: 6.00 Build 0)  -->
<!DOCTYPE svg PUBLIC "-//W3C//DTD SVG 1.1//EN" "http://www.w3.org/Graphics/SVG/1.1/DTD/svg11.dtd">
<svg version="1.1" id="Layer_3" xmlns="http://www.w3.org/2000/svg" xmlns:xlink="http://www.w3.org/1999/xlink" x="0px" y="0px"
	 viewBox="0 0 512 512" style="enable-background:new 0 0 512 512;" xml:space="preserve">
<style type="text/css">
	.st0{fill:#2A2D34;}
	.st1{fill:#2A2D34;}
	.st2{fill:none;stroke:#2A2D34;stroke-width:17.8598;stroke-miterlimit:10;}
	.st3{fill:none;stroke:#2A2D34;stroke-width:17.8598;stroke-miterlimit:1;}
	.st4{fill:none;stroke:#2A2D34;stroke-width:17.8598;stroke-miterlimit:10;}
	.st5{fill:none;stroke:#2A2D34;stroke-width:28.416;stroke-miterlimit:10;}
	.st6{fill:none;stroke:#2A2D34;stroke-width:17.5376;stroke-linecap:round;stroke-linejoin:round;stroke-miterlimit:10;}
	.st7{clip-path:url(#SVGID_1_);fill:#2A2D34;}
	.st8{fill:none;stroke:#2A2D34;stroke-width:13.9011;stroke-linecap:round;stroke-miterlimit:10;}
	.st9{fill:none;stroke:#2A2D34;stroke-width:12.3333;stroke-miterlimit:10;}
	.st10{fill:none;stroke:#2A2D34;stroke-width:22;stroke-miterlimit:10;}
	.st11{fill:none;stroke:#2A2D34;stroke-width:20.4266;stroke-miterlimit:10;}
	.st12{fill:none;stroke:#2A2D34;stroke-width:20;stroke-miterlimit:10;}
	.st13{fill:none;stroke:#2A2D34;stroke-width:18;stroke-miterlimit:10;}
	.st14{fill:none;stroke:#2A2D34;stroke-width:18;stroke-linecap:round;stroke-miterlimit:10;}
	.st15{fill:#48B24D;stroke:#48B24D;stroke-width:6.8866;stroke-miterlimit:10;}
	.st16{fill:#016938;}
	.st17{fill:#48B24D;}
	.st18{fill:#FFFFFF;}
	.st19{fill-rule:evenodd;clip-rule:evenodd;fill:#056AAD;}
	.st20{fill-rule:evenodd;clip-rule:evenodd;fill:#2A2D34;}
	.st21{fill:#FFFFFF;stroke:#FFFFFF;stroke-width:3.0411;stroke-miterlimit:10;}
	.st22{fill:#EC1C24;}
	.st23{fill:#EC1C24;stroke:#EC1C24;stroke-width:3.0411;stroke-miterlimit:10;}
	.st24{fill:#1B75BB;}
	.st25{fill:url(#SVGID_2_);stroke:#FFFFFF;stroke-width:6.1111;stroke-miterlimit:10;}
	.st26{fill:none;stroke:#FFFFFF;stroke-width:3.0556;stroke-miterlimit:10;}
</style>
<path class="st10" d="M415.6,424H96.4C68.7,424,46,401.3,46,373.6V134.4C46,106.7,68.7,84,96.4,84h319.2c27.7,0,50.4,22.7,50.4,50.4
	v239.2C466,401.3,443.3,424,415.6,424z"/>
<line class="st12" x1="46" y1="172.5" x2="466" y2="172.5"/>
<path class="st1" d="M394.2,145.1c-9.3,0-16.8-7.5-16.8-16.8c0-9.3,7.5-16.8,16.8-16.8c9.3,0,16.8,7.5,16.8,16.8
	C410.9,137.6,403.4,145.1,394.2,145.1z"/>
<path class="st1" d="M332.6,145.1c-9.3,0-16.8-7.5-16.8-16.8c0-9.3,7.5-16.8,16.8-16.8c9.3,0,16.8,7.5,16.8,16.8
	C349.3,137.6,341.8,145.1,332.6,145.1z"/>
<g>
	<path class="st0" d="M342.3,391.9v-28.7c0-30.8-22.7-29.6-50.2-39.3c-1.9,1.9-34.3,36.1-36.1,38c-1.8-1.9-34.1-36.1-36.1-38
		c-27.5,9.7-50.2,8.5-50.2,39.3v28.7H342.3z"/>
	<circle class="st0" cx="256" cy="263.5" r="49"/>
</g>
</svg>
